Coordinates
version=1
nRows=10
nColumns=63
inDegrees=yes

Units are S.I. units (second, meters, Newtons, ...)
If the header above contains a line with 'inDegrees', this indicates whether rotational values are in degrees (yes) or radians (no).

endheader
time	pelvis_tilt	pelvis_list	pelvis_rotation	pelvis_tx	pelvis_ty	pelvis_tz	hip_flexion_r	hip_adduction_r	hip_rotation_r	knee_angle_r	knee_angle_r_beta	ankle_angle_r	subtalar_angle_r	mtp_angle_r	hip_flexion_l	hip_adduction_l	hip_rotation_l	knee_angle_l	knee_angle_l_beta	ankle_angle_l	subtalar_angle_l	mtp_angle_l	L5_S1_Flex_Ext	L5_S1_Lat_Bending	L5_S1_axial_rotation	L4_L5_Flex_Ext	L4_L5_Lat_Bending	L4_L5_axial_rotation	L3_L4_Flex_Ext	L3_L4_Lat_Bending	L3_L4_axial_rotation	L2_L3_Flex_Ext	L2_L3_Lat_Bending	L2_L3_axial_rotation	L1_L2_Flex_Ext	L1_L2_Lat_Bending	L1_L2_axial_rotation	L1_T12_Flex_Ext	L1_T12_Lat_Bending	L1_T12_axial_rotation	Abs_r3	Abs_r2	Abs_r1	Abs_t1	Abs_t2	neck_flexion	neck_bending	neck_rotation	arm_flex_r	arm_add_r	arm_rot_r	elbow_flex_r	pro_sup_r	wrist_flex_r	wrist_dev_r	arm_flex_l	arm_add_l	arm_rot_l	elbow_flex_l	pro_sup_l	wrist_flex_l	wrist_dev_l
      3.76271186	     -7.88567792	      2.50001964	     84.49935142	      0.28029086	      0.88699175	      0.66360470	     -6.21544668	     -7.60885294	     -9.97743607	      5.45280927	      0.09516948	     21.77291122	     13.26542870	      0.00000000	     -5.42893590	      5.09342903	     -9.01741737	      8.49745150	      0.14830851	      7.73647685	    -11.70660015	      0.00000000	     -0.10639293	     -0.52202334	      0.77929728	     -0.19758230	     -0.69429104	      0.82800336	     -0.17479294	     -1.26924754	      0.82800336	     -0.12159647	     -1.26924754	      0.68188512	     -0.09879647	     -1.06450999	      0.63317904	     -0.06079292	     -0.80861415	      0.58447296	     -0.75995403	     -5.90523239	      4.33421769	      0.00000000	      0.00000000	      7.99551842	      0.69080754	     -9.88577893	     44.50130061	     -5.80165188	     -6.64056922	    117.17433394	     87.86973644	     -5.20997051	      3.94261452	     -4.53935740	    -23.78329867	     27.59054481	     63.91972957	     88.36975010	     -1.03130766	      1.94461357
      3.77966102	     -8.25684979	      2.44705415	     84.34476193	      0.28211957	      0.88673641	      0.66292381	     -6.19785133	     -7.92298837	     -9.84667417	      5.42212751	      0.09463398	     21.84374518	     13.15275347	      0.00000000	     -5.46109110	      5.43289155	     -9.25179359	      8.27085340	      0.14435362	      7.59982006	    -11.53219724	      0.00000000	     -0.10713906	     -0.56112555	      0.61967039	     -0.19896795	     -0.74629699	      0.65839979	     -0.17601877	     -1.36432067	      0.65839979	     -0.12244924	     -1.36432067	      0.54221159	     -0.09948933	     -1.14424723	      0.50348219	     -0.06121926	     -0.86918348	      0.46475279	     -0.76528361	     -6.34756448	      3.44642080	      0.00000000	      0.00000000	      8.28753669	      0.66267392	     -9.42526062	     44.11494585	     -4.88849550	     -5.37561018	    116.77992825	     87.57100411	     -4.56469830	      3.86594998	     -7.06188896	    -23.35848647	     24.57297226	     65.14021205	     87.77398327	     -1.11875413	      1.72595731
      3.79661017	     -8.36002953	      2.44784010	     84.63168561	      0.28300543	      0.88651283	      0.66223234	     -6.32980026	     -7.90022264	     -9.76704564	      5.38543028	      0.09399349	     21.90916962	     12.39977976	      0.00000000	     -5.44728963	      5.42428301	     -9.21152374	      8.35484830	      0.14581961	      7.72744352	    -11.17964116	      0.00000000	     -0.11975295	     -0.55945674	      0.35636689	     -0.22239320	     -0.74407747	      0.37863982	     -0.19674212	     -1.36026312	      0.37863982	     -0.13686564	     -1.36026312	      0.31182103	     -0.11120259	     -1.14084419	      0.28954810	     -0.06842683	     -0.86659849	      0.26727517	     -0.85538333	     -6.32868655	      1.98200573	      0.00000000	      0.00000000	      8.54384653	      1.40257998	     -7.15194568	     43.88509145	     -3.94644863	     -4.02092841	    116.12803519	     87.19488800	     -3.08845354	      4.17321789	     -9.60291840	    -22.45072276	     20.77990488	     66.33183520	     87.70868212	      0.36750129	      2.95089163
      3.81355932	     -8.52186133	      2.43292592	     84.60984769	      0.28409829	      0.88626344	      0.66145935	     -6.35963170	     -7.99476215	     -9.42610176	      5.31305196	      0.09273025	     22.12525291	     11.87883442	      0.00000000	     -5.46794897	      5.53772805	     -9.26782992	      8.28222229	      0.14455205	      7.39361641	    -11.28080381	      0.00000000	     -0.12364065	     -0.57080706	      0.24681133	     -0.22961305	     -0.75917339	      0.26223703	     -0.20312922	     -1.38786029	      0.26223703	     -0.14130890	     -1.38786029	      0.21595991	     -0.11481271	     -1.16398976	      0.20053420	     -0.07064827	     -0.88418014	      0.18510849	     -0.88315279	     -6.45708365	      1.37269055	      0.00000000	      0.00000000	      8.53515363	      1.88806163	     -6.36930003	     43.28547192	     -3.47349512	     -3.14799378	    116.02558162	     86.63127147	     -1.73585166	      5.90618178	    -11.28553215	    -21.96239480	     18.80941082	     67.18670334	     87.39813959	      0.40254791	      3.50377782
      3.83050847	     -8.55235089	      2.51429885	     84.63649069	      0.28459719	      0.88628134	      0.66082680	     -6.45805206	     -8.01972408	     -9.43814069	      5.30766572	      0.09263624	     22.28317508	     11.82833226	      0.00000000	     -5.54931428	      5.52847684	     -9.33120736	      8.32464941	      0.14529254	      7.31182328	    -11.31803001	      0.00000000	     -0.14237827	     -0.56324720	      0.25014318	     -0.26441069	     -0.74911878	      0.26577712	     -0.23391327	     -1.36947925	      0.26577712	     -0.16272413	     -1.36947925	      0.21887528	     -0.13221247	     -1.14857369	      0.20324133	     -0.08135495	     -0.87246992	      0.18760738	     -1.01699377	     -6.37156499	      1.39122130	      0.00000000	      0.00000000	      8.57692419	      1.96408177	     -6.39840878	     42.27785620	     -3.51127043	     -2.50592711	    115.94609836	     86.63217779	     -1.52170266	      6.10338459	    -11.62696464	    -21.89546177	     18.89199440	     67.16592116	     87.36741899	      0.40739054	      3.54893560
      3.84745763	     -8.70014283	      2.36965628	     84.75170984	      0.28511707	      0.88574951	      0.65921136	     -6.52090840	     -8.07953818	     -8.87518498	      4.96946794	      0.08673358	     22.49480613	     11.13907952	      0.00000000	     -5.57791745	      5.67274878	     -9.21024748	      7.95898510	      0.13891050	      6.62253556	    -11.94981820	      0.00000000	     -0.10583402	     -0.57477278	      0.16292752	     -0.19654435	     -0.76444780	      0.17311049	     -0.17387470	     -1.39750253	      0.17311049	     -0.12095770	     -1.39750253	      0.14256158	     -0.09827747	     -1.17207665	      0.13237861	     -0.06047356	     -0.89032303	      0.12219564	     -0.75596179	     -6.50194463	      0.90615397	      0.00000000	      0.00000000	      8.14381742	      3.12216571	     -5.37399178	     41.10033159	     -3.30613954	     -2.28134342	    116.34521847	     85.14031188	      1.33049329	     11.23311949	    -12.98845779	    -21.54972014	     17.52906056	     67.97777232	     86.58941542	     -0.12471941	      5.24362722
      3.86440678	     -8.66099889	      2.33031155	     84.93597873	      0.28518456	      0.88556061	      0.65817007	     -6.65006374	     -7.96922196	     -8.41782613	      4.73358051	      0.08261657	     22.52715507	     10.32342984	      0.00000000	     -5.62340164	      5.61126884	     -8.78891471	      7.81210650	      0.13634698	      6.41025921	    -12.46456472	      0.00000000	     -0.09929036	     -0.56383196	      0.17176104	     -0.18439212	     -0.74989651	      0.18249611	     -0.16312413	     -1.37090104	      0.18249611	     -0.11347895	     -1.37090104	      0.15029091	     -0.09220103	     -1.14976614	      0.13955585	     -0.05673451	     -0.87337571	      0.12882078	     -0.70922110	     -6.37817994	      0.95528338	      0.00000000	      0.00000000	      7.94067614	      3.51037283	     -5.21204139	     39.48653469	     -3.67928641	     -2.19048290	    116.54330817	     83.83817628	      3.30536771	     13.99396191	    -13.01952294	    -21.57209692	     17.90824365	     67.91920669	     85.96553730	     -0.11427178	      6.77976774
      3.88135593	     -8.56080004	      2.15471524	     85.09933460	      0.28514858	      0.88528563	      0.65689590	     -6.65291773	     -7.80816249	     -8.21859292	      4.50244863	      0.07858255	     22.49600266	      9.95106311	      0.00000000	     -5.59307668	      5.47503808	     -8.60662364	      7.55855783	      0.13192172	      6.55566952	    -12.47991160	      0.00000000	     -0.07056092	     -0.54874360	      0.17467119	     -0.13103869	     -0.72982899	      0.18558813	     -0.11592454	     -1.33421519	      0.18558813	     -0.08064408	     -1.33421519	      0.15283729	     -0.06552287	     -1.11899795	      0.14192034	     -0.04031851	     -0.85000384	      0.13100339	     -0.50400962	     -6.20749734	      0.97146873	      0.00000000	      0.00000000	      7.68465463	      3.61075150	     -5.20096419	     37.40244110	     -4.34623661	     -1.78919704	    116.63050020	     83.04195684	      4.19526811	     15.39705716	    -13.09168742	    -21.47259165	     18.19163842	     67.61287572	     85.27247149	     -0.13379452	      7.87777291
      3.89830508	     -8.52906846	      2.03878387	     85.31605068	      0.28518627	      0.88500854	      0.65607351	     -6.68816380	     -7.70619613	     -7.94323368	      4.32448169	      0.07547644	     22.51211097	      9.34246141	      0.00000000	     -5.52652078	      5.37418143	     -8.54753406	      7.47583736	      0.13047798	      7.12392258	    -12.08252083	      0.00000000	     -0.06787276	     -0.54796186	      0.19545692	     -0.12604651	     -0.72878927	      0.20767298	     -0.11150816	     -1.33231446	      0.20767298	     -0.07757178	     -1.33231446	      0.17102481	     -0.06302665	     -1.11740382	      0.15880875	     -0.03878250	     -0.84879291	      0.14659269	     -0.48480837	     -6.19865410	      1.08707276	      0.00000000	      0.00000000	      7.73275812	      3.24618931	     -5.62602046	     34.99809370	     -5.28449042	     -1.58381236	    116.87237909	     81.72388259	      5.45715729	     17.05260152	    -12.87056527	    -21.54981119	     18.67946091	     67.39408536	     84.09219340	      0.07837431	      9.76353507
      3.91525424	     -8.42115384	      1.79507663	     85.63163399	      0.28512859	      0.88468059	      0.65522808	     -6.60855465	     -7.51001145	     -7.78880079	      4.17073527	      0.07279306	     22.43794099	      8.97083415	      0.00000000	     -5.35573478	      5.17643309	     -8.71491154	      7.35252756	      0.12832581	      7.91684155	    -11.35835262	      0.00000000	     -0.05005586	     -0.54140280	      0.22217475	     -0.09295874	     -0.72006572	      0.23606067	     -0.08223678	     -1.31636676	      0.23606067	     -0.05720885	     -1.31636676	      0.19440291	     -0.04648188	     -1.10402858	      0.18051698	     -0.02860192	     -0.83863293	      0.16663106	     -0.35754403	     -6.12445672	      1.23566931	      0.00000000	      0.00000000	      7.59347821	      2.60970297	     -6.19957458	     32.05054485	     -6.52787718	     -1.40845844	    117.17180761	     81.21485825	      6.03567330	     17.52250097	    -12.55855770	    -21.60511790	     19.20945955	     67.01512681	     83.51341088	      0.46631175	     10.94632929
